PathFileType	4	(X/Y/Z)	T1_P1_Vision_NoMovement_4_0-684.trc
DataRate	CameraRate	NumFrames	NumMarkers	Units	OrigDataRate	OrigDataStartFrame	OrigNumFrames
60	60	4	27	m	60	513	684
Frame#	Time	RHip			RKnee			RAnkle			RBigToe			RSmallToe			RHeel			LHip			LKnee			LAnkle			LBigToe			LSmallToe			LHeel			Neck			Head			Nose			RShoulder			RElbow			RWrist			RThumb			RIndex			RPinky			LShoulder			LElbow			LWrist			LThumb			LIndex			LPinky		
		X1	Y1	Z1	X2	Y2	Z2	X3	Y3	Z3	X4	Y4	Z4	X5	Y5	Z5	X6	Y6	Z6	X7	Y7	Z7	X8	Y8	Z8	X9	Y9	Z9	X10	Y10	Z10	X11	Y11	Z11	X12	Y12	Z12	X13	Y13	Z13	X14	Y14	Z14	X15	Y15	Z15	X16	Y16	Z16	X17	Y17	Z17	X18	Y18	Z18	X19	Y19	Z19	X20	Y20	Z20	X21	Y21	Z21	X22	Y22	Z22	X23	Y23	Z23	X24	Y24	Z24	X25	Y25	Z25	X26	Y26	Z26	X27	Y27	Z27
514	8.566666666666666	-66.22996144582306	3791.8223726729966	-548.0667356068526	288.3793098377989	3927.8484172151657	-509.2870501618279	639.9371031326459	4146.551498781878	-529.6655417701046	691.0530071924105	4025.7407745411197	-450.32557877203595	688.3309139743965	3967.079854416489	-484.2787652373392	678.5235633813716	4173.98753074842	-531.1211401391929	-105.5090652923117	3909.9100253000624	-368.190621894253	236.4411073329327	3972.858358398283	-361.1151022110124	619.7241510770226	4230.0284964295415	-453.8635535268245	663.3815478598457	3990.121469962625	-343.4738461096075	670.9708433641317	4123.951765229966	-343.9219222045259	670.4264625240806	4320.933649967307	-500.0209523640585	-663.9795260113141	3694.843090698493	-527.0127394263307	-903.4885711418245	3518.426551755739	-432.6136608562793	-776.4302329535708	3570.960176457723	-416.413802902001	-556.8550414727541	3669.8263411994812	-665.8008137186247	-266.3058821667759	3672.7500069791704	-682.2824069905984	-18.1803888344344	3653.4763104846456	-596.1231624062046	84.57334446697506	3751.074509246606	-547.4502846118099	116.54814437468671	3770.418965560735	-567.0218892606932	104.40911979933078	3731.4010822860823	-582.9532265335562	-615.3561016495698	3804.2795700795173	-398.8140655880481	-380.4213868159848	3955.2305672579814	-341.1233091405079	-122.86320836106376	3921.1154671167415	-272.96801869380204	10.781562776848538	3891.7083906725643	-293.939400009413	22.725914960893874	3843.9890355138864	-222.0165496654309	1.7949388166795055	3995.386691829235	-229.67205482695914
515	8.583333333333334	-66.32612854247702	3789.6910802327575	-546.4264180309576	286.95711237338867	3924.6597410333125	-508.64593499243836	639.2044690713615	4151.722141164888	-529.5178779565366	692.01561394396	4035.668457555986	-453.62083976361043	688.105706660735	3971.1391548175015	-485.7125415831838	678.4345443702949	4174.1870359419745	-530.4898002183517	-106.49511080033734	3904.153433812492	-364.3167729648809	236.3529102923875	3972.471747694409	-361.08663377219005	617.7480512316708	4232.733866750515	-453.7623339094023	662.5346007515784	3988.8635223303686	-342.2962714776238	670.0784722188847	4130.531375193496	-344.67186176263857	668.8478847840728	4317.714973073081	-497.34490544342486	-664.1767573737668	3696.0908174562737	-528.0346279242075	-902.6044645106972	3518.8356276032564	-432.72675325396057	-775.8720665492776	3568.668043309644	-415.88415735013973	-557.716979922771	3669.718932782892	-665.8421853980767	-266.2885712988898	3672.7363247562002	-682.3168475370578	-17.514251386265073	3653.6142665895463	-597.2453261880787	84.57229956718913	3751.1310569979414	-547.3040071559074	116.97731870769873	3767.7450209644885	-566.2692079393372	104.85303579348898	3726.9880772873476	-581.9873490354871	-615.5346165984691	3805.6663977273442	-399.835122933609	-378.94891825633374	3955.9275897698562	-341.649397264522	-122.8960356935869	3924.38649087416	-272.62997397655016	10.13038304951428	3891.411602920271	-293.86028807847623	22.51842032803806	3843.6807488070012	-220.96174639420738	0.6636174104290362	3994.4310190168067	-229.28625056203254
516	8.6	-66.27262811665766	3786.4325682020162	-545.4085902721283	286.8165877009922	3919.9468579838867	-507.2907308077728	638.6233887792888	4154.751634684661	-528.7886507044351	693.9271769738192	4041.7374245375227	-455.5743378100276	688.1340673427122	3974.2137358260234	-487.39877095314205	678.5243349734876	4175.542148081766	-530.3655571308277	-105.8670262399666	3902.4968085526884	-363.00846015743497	235.83024486934784	3973.011452503228	-361.91144772952794	618.0256214784926	4240.515432913124	-454.0698322849331	662.3197579782693	3990.570146896534	-342.6084903638749	670.651334975247	4137.183332118678	-345.67197117712686	668.1493086328506	4314.5392541170695	-494.55411248633004	-664.5864413456113	3699.259214144675	-530.5942433860235	-901.878362661875	3519.154913239786	-432.80356496909286	-774.2429023311558	3562.946831671996	-414.5487025587008	-558.5770295929816	3669.5737508690368	-665.8744810382875	-266.2837295203849	3672.7244615469444	-682.3236290869938	-17.766413485163643	3653.311813761148	-598.1150082878869	84.57395641727058	3750.962883070998	-547.2352948162641	117.16920716370088	3767.102567551517	-565.8692427959181	104.80076211643679	3722.2104596268873	-580.8201831519474	-615.9335452967337	3809.1199876591218	-402.3614094281357	-378.16078313754724	3956.5674708342112	-343.25659116171295	-122.53596286633855	3921.6330433080116	-269.46834365949087	10.894532121116985	3892.157200854782	-294.22564009865283	22.4997090663253	3843.5645641200526	-220.27364674010752	0.6431463796265333	3991.918934632332	-227.6494975532909
517	8.616666666666667	-66.10978979978768	3779.098970613782	-543.6005111049138	287.6068785373818	3917.517190251891	-505.7295332931332	639.420028080908	4156.113453579852	-528.3304125652963	696.1913784627253	4043.9422959689846	-455.9651214540748	688.6656814642132	3978.169646746104	-488.1104854532538	679.540755090029	4181.031684636925	-532.8215171228267	-104.13875219656171	3903.4936565468356	-363.362579108886	235.24242584238073	3975.5679691392725	-363.9243974292725	619.6579266210193	4250.1929678212455	-456.30621452683204	663.3345722050603	3994.2204824406463	-343.6887625822432	671.414306603375	4137.221841553408	-345.62971225507823	668.6979848806122	4315.750210548432	-495.1345442191258	-664.990051065422	3702.494572251555	-533.2081983361774	-901.5236697608547	3519.2774487119327	-432.8243455569543	-771.8592398026161	3555.531954703602	-412.82773811635525	-559.2987839213695	3669.45912899975	-665.9249327183888	-266.27231428811206	3672.6477248369047	-682.2781432628806	-18.525852596347153	3652.9428021140484	-598.0185651777035	84.66004099552183	3750.7892237767564	-547.8162790293608	117.51197994349238	3767.285694592623	-565.7160354456769	104.59076472506646	3716.94458692991	-579.4793003725019	-616.3133587224926	3812.570690073183	-404.8807262428183	-377.98751964903244	3957.0365447207673	-345.4297607670735	-121.88506034450585	3915.3220653283297	-264.9931888065431	12.401600007311933	3892.8932503345923	-294.4283066973911	22.633745638548223	3843.6104367594453	-220.06824038401868	1.5113747417114038	3987.5868607327275	-224.5300312060576
